<svg id="Capa_2" data-name="Capa 2" xmlns="http://www.w3.org/2000/svg" viewBox="0 0 98.29 78.99">
  <defs>
    <style>
      .cls-1 {
        fill: #fff;
      }
    </style>
  </defs>
  <g id="Capa_1-2" data-name="Capa 1">
    <g>
      <g>
        <path class="cls-1" d="M0,78.84v-15.96h5.22l11.45,9.49v-9.49h5.15v15.96h-5.22l-11.45-9.52v9.52H0Z"/>
        <path class="cls-1" d="M32.53,78.99c-2.74,0-4.88-.68-6.41-2.04-1.54-1.36-2.3-3.36-2.3-6s.77-4.67,2.3-6.03c1.53-1.36,3.67-2.04,6.41-2.04h7.67c1.8,0,3.18.42,4.13,1.27s1.43,2.06,1.43,3.64c0,3.21-1.85,4.82-5.55,4.82h-11.6c.43,1.9,1.74,2.85,3.93,2.85h12.43v3.53h-12.43ZM32.53,66.41c-2.11,0-3.41.89-3.9,2.67h11.36c.41,0,.73-.12.97-.37s.35-.58.35-1.01c0-.86-.44-1.29-1.32-1.29h-7.46Z"/>
        <path class="cls-1" d="M46.21,78.84l5.95-7.89-5.95-7.89h5.22l4.57,6.11h2.24l4.6-6.11h5.19l-5.92,7.89,5.92,7.89h-5.19l-4.64-6.14h-2.21l-4.57,6.14h-5.22Z"/>
        <path class="cls-1" d="M70.23,78.84v-15.8h4.45v15.8h-4.45Z"/>
        <path class="cls-1" d="M82.06,78.84c-1.66,0-2.92-.42-3.8-1.26-.88-.84-1.32-2.04-1.32-3.59s.44-2.72,1.32-3.56c.88-.84,2.15-1.26,3.8-1.26h11.79v-.74c0-1.25-.61-1.87-1.84-1.87h-13.01v-3.53h14.18c1.86,0,3.18.42,3.96,1.27.78.85,1.17,2.04,1.17,3.57v10.96h-16.24ZM82.86,75.31h10.99v-2.61h-10.99c-.39,0-.69.12-.91.35s-.32.55-.32.93.11.71.32.95c.21.25.52.37.91.37Z"/>
      </g>
      <g>
        <polygon class="cls-1" points="79.52 20.25 79.52 13.5 59.27 0 39.02 0 18.77 13.5 18.77 20.25 32.27 20.25 45.77 6.75 52.52 6.75 66.02 20.25 79.52 20.25"/>
        <polygon class="cls-1" points="18.77 33.75 18.77 40.5 39.02 54 59.27 54 79.52 40.5 79.52 33.75 66.02 33.75 52.52 47.25 45.77 47.25 32.27 33.75 18.77 33.75"/>
      </g>
    </g>
  </g>
</svg>